<?xml version="1.0" encoding="UTF-8"?>
<svg id="Layer_1" data-name="Layer 1" xmlns="http://www.w3.org/2000/svg" viewBox="0 0 28.35 28.35">
  <defs>
    <style>
      .cls-1 {
        fill: #231f20;
        fill-rule: evenodd;
      }
    </style>
  </defs>
  <path class="cls-1" d="M19.95,8.8c-1.45-1.46-3.39-2.26-5.45-2.26-4.25,0-7.7,3.45-7.7,7.7,0,1.36.35,2.68,1.03,3.85l-1.09,3.99,4.08-1.07c1.12.61,2.39.94,3.68.94h0c4.24,0,7.7-3.45,7.7-7.7,0-2.06-.8-3.99-2.25-5.45h0ZM14.5,20.65h0c-1.15,0-2.28-.31-3.26-.89l-.23-.14-2.42.64.65-2.36-.15-.24c-.64-1.02-.98-2.2-.98-3.41,0-3.53,2.87-6.4,6.4-6.4,1.71,0,3.32.67,4.53,1.88,1.21,1.21,1.87,2.82,1.87,4.53,0,3.53-2.87,6.4-6.4,6.4h0ZM18.01,15.86c-.19-.1-1.14-.56-1.31-.63-.18-.06-.3-.1-.43.1-.13.19-.5.63-.61.75-.11.13-.22.14-.42.05-.19-.1-.81-.3-1.55-.95-.57-.51-.96-1.14-1.07-1.33-.11-.19-.01-.3.08-.39.09-.09.19-.22.29-.34.1-.11.13-.19.19-.32.06-.13.03-.24-.02-.34-.05-.1-.43-1.04-.59-1.43-.16-.38-.31-.32-.43-.33-.11,0-.24,0-.37,0s-.34.05-.51.24c-.18.19-.67.66-.67,1.61s.69,1.86.79,1.99c.1.13,1.36,2.07,3.29,2.91.46.2.82.32,1.1.41.46.15.88.13,1.21.08.37-.06,1.14-.47,1.3-.92s.16-.83.11-.92-.18-.13-.37-.22h0Z"/>
</svg>