<?xml version="1.0" encoding="UTF-8"?>
<svg id="Layer_1" data-name="Layer 1" xmlns="http://www.w3.org/2000/svg" viewBox="0 0 28.35 28.35">
  <defs>
    <style>
      .cls-1 {
        fill: #231f20;
      }
    </style>
  </defs>
  <path class="cls-1" d="M14.75,6.67c-4.27,0-7.73,3.46-7.73,7.73,0,3.63,2.5,6.67,5.87,7.51v-5.14h-1.59v-2.36h1.59v-1.02c0-2.63,1.19-3.85,3.78-3.85.49,0,1.34.1,1.68.19v2.14c-.18-.02-.5-.03-.89-.03-1.27,0-1.76.48-1.76,1.73v.84h2.53l-.43,2.36h-2.09v5.31c3.83-.46,6.8-3.72,6.8-7.68,0-4.27-3.46-7.73-7.73-7.73Z"/>
</svg>