<?xml version="1.0" encoding="UTF-8"?>
<svg id="Layer_1" data-name="Layer 1" xmlns="http://www.w3.org/2000/svg" viewBox="0 0 28.35 28.35">
  <defs>
    <style>
      .cls-1 {
        fill: #231f20;
      }
    </style>
  </defs>
  <path class="cls-1" d="M10.48,6.67c-.82.04-1.38.17-1.88.36-.51.2-.94.46-1.37.89-.43.43-.69.86-.89,1.37-.19.49-.32,1.05-.36,1.88-.04.82-.04,1.09-.04,3.19,0,2.1.01,2.36.05,3.19.04.82.17,1.38.36,1.88.2.51.46.94.89,1.37.43.43.86.69,1.37.89.49.19,1.05.32,1.88.36.82.04,1.09.04,3.19.04s2.36-.01,3.19-.05,1.38-.17,1.88-.36c.51-.2.94-.46,1.37-.89s.69-.86.89-1.37c.19-.49.32-1.05.36-1.88.04-.83.04-1.09.04-3.19,0-2.1-.01-2.36-.05-3.19-.04-.82-.17-1.38-.36-1.88-.2-.51-.46-.94-.89-1.37s-.86-.69-1.37-.89c-.49-.19-1.05-.32-1.88-.36s-1.09-.04-3.19-.04c-2.1,0-2.36.01-3.19.05M10.57,20.65c-.75-.03-1.16-.16-1.44-.26-.36-.14-.62-.31-.89-.58s-.44-.53-.58-.89c-.11-.27-.23-.68-.27-1.44-.04-.81-.05-1.06-.05-3.12,0-2.06,0-2.31.04-3.12.03-.75.16-1.16.26-1.44.14-.36.31-.62.58-.89s.53-.44.89-.58c.27-.11.68-.23,1.44-.27.82-.04,1.06-.05,3.12-.05,2.06,0,2.31,0,3.13.04.75.03,1.16.16,1.44.26.36.14.62.31.89.58.27.27.44.53.58.89.11.27.23.68.27,1.43.04.82.05,1.06.05,3.12,0,2.06,0,2.31-.04,3.12-.03.75-.16,1.16-.26,1.44-.14.36-.31.62-.58.89s-.53.44-.89.58c-.27.11-.68.23-1.43.27-.82.04-1.06.05-3.13.05-2.06,0-2.31,0-3.12-.04M16.87,10.21c0,.51.42.93.93.93s.93-.42.93-.93c0-.51-.42-.93-.93-.93h0c-.51,0-.93.42-.93.93M9.71,14.35c0,2.19,1.79,3.97,3.98,3.96,2.19,0,3.97-1.79,3.96-3.98,0-2.19-1.79-3.97-3.98-3.96-2.19,0-3.97,1.79-3.96,3.98M11.1,14.35c0-1.42,1.15-2.58,2.57-2.58,1.42,0,2.58,1.15,2.58,2.57,0,1.42-1.15,2.58-2.57,2.58-1.42,0-2.58-1.15-2.58-2.57h0"/>
</svg>