<?xml version="1.0" encoding="UTF-8"?>
<svg id="Layer_1" data-name="Layer 1" xmlns="http://www.w3.org/2000/svg" viewBox="0 0 28.35 28.35">
  <defs>
    <style>
      .cls-1 {
        fill: #231f20;
        fill-rule: evenodd;
      }
    </style>
  </defs>
  <path class="cls-1" d="M20.15,6.61h-12.03c-.95,0-1.72.77-1.72,1.72v12.03c0,.95.77,1.72,1.72,1.72h12.03c.95,0,1.72-.77,1.72-1.72v-12.03c0-.95-.77-1.72-1.72-1.72ZM11.08,19.93h-2.31v-7.45h2.31v7.45ZM9.91,11.51c-.75,0-1.36-.62-1.36-1.37s.61-1.37,1.36-1.37,1.36.62,1.36,1.37-.61,1.37-1.36,1.37ZM19.72,19.93h-2.3v-3.91c0-1.07-.41-1.67-1.26-1.67-.92,0-1.41.62-1.41,1.67v3.91h-2.21v-7.45h2.21v1s.67-1.23,2.25-1.23,2.71.96,2.71,2.96v4.72h0Z"/>
</svg>