<?xml version="1.0" encoding="UTF-8"?>
<svg id="Layer_1" data-name="Layer 1" xmlns="http://www.w3.org/2000/svg" viewBox="0 0 28.35 28.35">
  <defs>
    <style>
      .cls-1 {
        fill: #231f20;
      }
    </style>
  </defs>
  <path class="cls-1" d="M15.39,9.4c.72,1.5,1.03,3.4,1.02,5.06h-5.79s-.15-.16-.14-.23c.16-1.48.33-2.99.9-4.38,1.02-2.49,2.67-3.27,4.02-.44ZM5.88,12.45c.86-2.62,3.08-4.57,5.72-5.25l-.9,1.32c-.94,1.83-1.3,3.89-1.36,5.94h-3.72c-.06,0-.13-.14-.14-.23-.02-.3.28-1.43.4-1.78ZM5.48,15.59h3.86c.09,1.97.39,3.96,1.28,5.73l.93,1.43c-3.33-.75-5.81-3.78-6.07-7.16ZM11.5,20.45c-.69-1.52-.89-3.21-1.02-4.87h5.93c0,1.51-.25,3.18-.83,4.59-1.09,2.65-2.79,3.13-4.08.28ZM16.5,22.41c-.34.14-.79.32-1.13.28,1.71-1.96,2.06-4.61,2.26-7.11h3.77c-.09,2.98-2.18,5.72-4.9,6.83ZM17.63,14.46c-.16-2.07-.43-4.19-1.46-6.03l-.8-1.22c3.27.86,5.97,3.79,6.03,7.25h-3.77Z"/>
</svg>