<?xml version="1.0" encoding="UTF-8"?>
<svg id="Layer_1" data-name="Layer 1" xmlns="http://www.w3.org/2000/svg" viewBox="0 0 160.63 28.35">
  <defs>
    <style>
      .cls-1, .cls-2 {
        fill: #231f20;
      }

      .cls-2 {
        font-family: Futura-Medium, Futura;
        font-size: 12.59px;
        font-weight: 500;
      }
    </style>
  </defs>
  <text class="cls-2" transform="translate(28.45 18.8)"><tspan x="0" y="0">BENAIRGROUP.COM</tspan></text>
  <path class="cls-1" d="M16.39,9.06c.7,1.47,1,3.32.99,4.93h-5.65s-.15-.15-.14-.23c.16-1.45.32-2.91.88-4.27,1-2.43,2.6-3.18,3.92-.43ZM7.13,12.04c.84-2.55,3-4.45,5.58-5.12l-.87,1.28c-.92,1.78-1.27,3.79-1.33,5.78h-3.63c-.06,0-.13-.14-.13-.22-.02-.29.27-1.4.39-1.73ZM6.74,15.09h3.76c.09,1.92.38,3.86,1.25,5.59l.91,1.39c-3.24-.73-5.67-3.68-5.92-6.98ZM12.6,19.83c-.67-1.49-.87-3.13-.99-4.74h5.78c0,1.47-.25,3.1-.81,4.47-1.06,2.58-2.72,3.05-3.98.27ZM17.47,21.74c-.33.13-.77.32-1.1.28,1.67-1.91,2.01-4.49,2.2-6.93h3.67c-.09,2.91-2.12,5.57-4.78,6.65ZM18.58,13.99c-.15-2.02-.42-4.08-1.42-5.88l-.78-1.19c3.19.84,5.81,3.69,5.87,7.07h-3.67Z"/>
</svg>