<?xml version="1.0" encoding="UTF-8"?>
<svg id="Layer_1" data-name="Layer 1" xmlns="http://www.w3.org/2000/svg" viewBox="0 0 28.35 28.35">
  <defs>
    <style>
      .cls-1 {
        fill: #231f20;
      }
    </style>
  </defs>
  <path class="cls-1" d="M23.81,9.49c-.23-.88-.92-1.57-1.79-1.8-1.58-.43-7.9-.43-7.9-.43,0,0-6.32,0-7.9.43-.87.23-1.56.92-1.79,1.8-.42,1.59-.42,4.9-.42,4.9,0,0,0,3.31.42,4.9.23.88.92,1.57,1.79,1.8,1.58.43,7.9.43,7.9.43,0,0,6.32,0,7.9-.43.87-.23,1.56-.92,1.79-1.8.42-1.59.42-4.9.42-4.9,0,0,0-3.31-.42-4.9ZM12.06,17.4v-6.01l5.29,3.01-5.29,3.01Z"/>
</svg>